<svg id="visual" viewBox="0 0 1920 1080" width="1920" height="1080" xmlns="http://www.w3.org/2000/svg" xmlns:xlink="http://www.w3.org/1999/xlink" version="1.1"><rect x="0" y="0" width="1920" height="1080" fill="#FAFAFA"></rect><path d="M0 610L45.7 601C91.3 592 182.7 574 274.2 558.8C365.7 543.7 457.3 531.3 548.8 541.8C640.3 552.3 731.7 585.7 823 577.5C914.3 569.3 1005.7 519.7 1097 481.2C1188.3 442.7 1279.7 415.3 1371.2 440.8C1462.7 466.3 1554.3 544.7 1645.8 559.2C1737.3 573.7 1828.7 524.3 1874.3 499.7L1920 475L1920 1081L1874.3 1081C1828.7 1081 1737.3 1081 1645.8 1081C1554.3 1081 1462.7 1081 1371.2 1081C1279.7 1081 1188.3 1081 1097 1081C1005.7 1081 914.3 1081 823 1081C731.7 1081 640.3 1081 548.8 1081C457.3 1081 365.7 1081 274.2 1081C182.7 1081 91.3 1081 45.7 1081L0 1081Z" fill="#97f6d3"></path><path d="M0 439L45.7 477C91.3 515 182.7 591 274.2 596.7C365.7 602.3 457.3 537.7 548.8 500C640.3 462.3 731.7 451.7 823 453.2C914.3 454.7 1005.7 468.3 1097 500.3C1188.3 532.3 1279.7 582.7 1371.2 625.3C1462.7 668 1554.3 703 1645.8 695.8C1737.3 688.7 1828.7 639.3 1874.3 614.7L1920 590L1920 1081L1874.3 1081C1828.7 1081 1737.3 1081 1645.8 1081C1554.3 1081 1462.7 1081 1371.2 1081C1279.7 1081 1188.3 1081 1097 1081C1005.7 1081 914.3 1081 823 1081C731.7 1081 640.3 1081 548.8 1081C457.3 1081 365.7 1081 274.2 1081C182.7 1081 91.3 1081 45.7 1081L0 1081Z" fill="#7ed6b4"></path><path d="M0 646L45.7 651.5C91.3 657 182.7 668 274.2 697.7C365.7 727.3 457.3 775.7 548.8 799C640.3 822.3 731.7 820.7 823 789C914.3 757.3 1005.7 695.7 1097 676.7C1188.3 657.7 1279.7 681.3 1371.2 690.3C1462.7 699.3 1554.3 693.7 1645.8 690.8C1737.3 688 1828.7 688 1874.3 688L1920 688L1920 1081L1874.3 1081C1828.7 1081 1737.3 1081 1645.8 1081C1554.3 1081 1462.7 1081 1371.2 1081C1279.7 1081 1188.3 1081 1097 1081C1005.7 1081 914.3 1081 823 1081C731.7 1081 640.3 1081 548.8 1081C457.3 1081 365.7 1081 274.2 1081C182.7 1081 91.3 1081 45.7 1081L0 1081Z" fill="#65b697"></path><path d="M0 802L45.7 805.5C91.3 809 182.7 816 274.2 827.2C365.7 838.3 457.3 853.7 548.8 837.8C640.3 822 731.7 775 823 761.3C914.3 747.7 1005.7 767.3 1097 774.7C1188.3 782 1279.7 777 1371.2 765.8C1462.7 754.7 1554.3 737.3 1645.8 745.8C1737.3 754.3 1828.7 788.7 1874.3 805.8L1920 823L1920 1081L1874.3 1081C1828.7 1081 1737.3 1081 1645.8 1081C1554.3 1081 1462.7 1081 1371.2 1081C1279.7 1081 1188.3 1081 1097 1081C1005.7 1081 914.3 1081 823 1081C731.7 1081 640.3 1081 548.8 1081C457.3 1081 365.7 1081 274.2 1081C182.7 1081 91.3 1081 45.7 1081L0 1081Z" fill="#4d977b"></path><path d="M0 852L45.7 857.7C91.3 863.3 182.7 874.7 274.2 892.7C365.7 910.7 457.3 935.3 548.8 933C640.3 930.7 731.7 901.3 823 885.8C914.3 870.3 1005.7 868.7 1097 884.8C1188.3 901 1279.7 935 1371.2 932.7C1462.7 930.3 1554.3 891.7 1645.8 888.2C1737.3 884.7 1828.7 916.3 1874.3 932.2L1920 948L1920 1081L1874.3 1081C1828.7 1081 1737.3 1081 1645.8 1081C1554.3 1081 1462.7 1081 1371.2 1081C1279.7 1081 1188.3 1081 1097 1081C1005.7 1081 914.3 1081 823 1081C731.7 1081 640.3 1081 548.8 1081C457.3 1081 365.7 1081 274.2 1081C182.7 1081 91.3 1081 45.7 1081L0 1081Z" fill="#357960"></path></svg>