<svg id="visual" viewBox="0 0 900 600" width="900" height="600" xmlns="http://www.w3.org/2000/svg" xmlns:xlink="http://www.w3.org/1999/xlink" version="1.1"><rect x="0" y="0" width="900" height="600" fill="#FAFAFA"></rect><defs><linearGradient id="grad1_0" x1="33.3%" y1="0%" x2="100%" y2="100%"><stop offset="20%" stop-color="#357960" stop-opacity="1"></stop><stop offset="80%" stop-color="#357960" stop-opacity="1"></stop></linearGradient></defs><defs><linearGradient id="grad1_1" x1="33.3%" y1="0%" x2="100%" y2="100%"><stop offset="20%" stop-color="#357960" stop-opacity="1"></stop><stop offset="80%" stop-color="#97b8aa" stop-opacity="1"></stop></linearGradient></defs><defs><linearGradient id="grad1_2" x1="33.3%" y1="0%" x2="100%" y2="100%"><stop offset="20%" stop-color="#fafafa" stop-opacity="1"></stop><stop offset="80%" stop-color="#97b8aa" stop-opacity="1"></stop></linearGradient></defs><defs><linearGradient id="grad2_0" x1="0%" y1="0%" x2="66.7%" y2="100%"><stop offset="20%" stop-color="#357960" stop-opacity="1"></stop><stop offset="80%" stop-color="#357960" stop-opacity="1"></stop></linearGradient></defs><defs><linearGradient id="grad2_1" x1="0%" y1="0%" x2="66.7%" y2="100%"><stop offset="20%" stop-color="#97b8aa" stop-opacity="1"></stop><stop offset="80%" stop-color="#357960" stop-opacity="1"></stop></linearGradient></defs><defs><linearGradient id="grad2_2" x1="0%" y1="0%" x2="66.7%" y2="100%"><stop offset="20%" stop-color="#97b8aa" stop-opacity="1"></stop><stop offset="80%" stop-color="#fafafa" stop-opacity="1"></stop></linearGradient></defs><g transform="translate(900, 0)"><path d="M0 405.6C-46.2 370.9 -92.4 336.3 -126.7 305.8C-160.9 275.4 -183.3 249.1 -228.4 228.4C-273.5 207.7 -341.4 192.4 -374.7 155.2C-408.1 118.1 -406.9 59 -405.6 0L0 0Z" fill="#c8d9d1"></path><path d="M0 270.4C-30.8 247.3 -61.6 224.2 -84.4 203.9C-107.3 183.6 -122.2 166.1 -152.3 152.3C-182.3 138.4 -227.6 128.3 -249.8 103.5C-272.1 78.7 -271.2 39.4 -270.4 0L0 0Z" fill="#679884"></path><path d="M0 135.2C-15.4 123.6 -30.8 112.1 -42.2 101.9C-53.6 91.8 -61.1 83 -76.1 76.1C-91.2 69.2 -113.8 64.1 -124.9 51.7C-136 39.4 -135.6 19.7 -135.2 0L0 0Z" fill="#357960"></path></g><g transform="translate(0, 600)"><path d="M0 -405.6C55.2 -400.8 110.4 -396 154.2 -372.3C198 -348.6 230.5 -306.1 268.7 -268.7C306.9 -231.3 351 -199.1 374.7 -155.2C398.5 -111.3 402.1 -55.7 405.6 0L0 0Z" fill="#c8d9d1"></path><path d="M0 -270.4C36.8 -267.2 73.6 -264 102.8 -248.2C132 -232.4 153.6 -204 179.1 -179.1C204.6 -154.2 234 -132.8 249.8 -103.5C265.7 -74.2 268.1 -37.1 270.4 0L0 0Z" fill="#679884"></path><path d="M0 -135.2C18.4 -133.6 36.8 -132 51.4 -124.1C66 -116.2 76.8 -102 89.6 -89.6C102.3 -77.1 117 -66.4 124.9 -51.7C132.8 -37.1 134 -18.6 135.2 0L0 0Z" fill="#357960"></path></g></svg>