<svg id="visual" viewBox="0 0 1920 1080" width="1920" height="1080" xmlns="http://www.w3.org/2000/svg" xmlns:xlink="http://www.w3.org/1999/xlink" version="1.1"><rect x="0" y="0" width="1920" height="1080" fill="#FAFAFA"></rect><path d="M0 757L53.3 699.2C106.7 641.3 213.3 525.7 320 525.5C426.7 525.3 533.3 640.7 640 689.5C746.7 738.3 853.3 720.7 960 663.2C1066.7 605.7 1173.3 508.3 1280 460.2C1386.7 412 1493.3 413 1600 396C1706.7 379 1813.3 344 1866.7 326.5L1920 309L1920 1081L1866.7 1081C1813.3 1081 1706.7 1081 1600 1081C1493.3 1081 1386.7 1081 1280 1081C1173.3 1081 1066.7 1081 960 1081C853.3 1081 746.7 1081 640 1081C533.3 1081 426.7 1081 320 1081C213.3 1081 106.7 1081 53.3 1081L0 1081Z" fill="#357960" stroke-linecap="round" stroke-linejoin="miter"></path></svg>